<?xml version="1.0" encoding="UTF-8"?>
<!DOCTYPE svg PUBLIC "-//W3C//DTD SVG 1.1//EN" "http://www.w3.org/Graphics/SVG/1.1/DTD/svg11.dtd">
<svg xmlns="http://www.w3.org/2000/svg" version="1.1" width="44px" height="44px" style="shape-rendering:geometricPrecision; text-rendering:geometricPrecision; image-rendering:optimizeQuality; fill-rule:evenodd; clip-rule:evenodd" xmlns:xlink="http://www.w3.org/1999/xlink">
<g><path style="opacity:1" fill="#6148a9" d="M 32.5,23.5 C 29.5,23.5 26.5,23.5 23.5,23.5C 23.5,26.5 23.5,29.5 23.5,32.5C 23.0831,33.1239 22.4164,33.4573 21.5,33.5C 20.2867,33.2528 19.62,32.5862 19.5,31.5C 19.5,28.8333 19.5,26.1667 19.5,23.5C 16.5,23.5 13.5,23.5 10.5,23.5C 9.56552,22.4324 9.23219,21.099 9.5,19.5C 12.5,19.5 15.5,19.5 18.5,19.5C 18.3359,16.8127 18.5026,14.146 19,11.5C 20.6667,8.83333 22.3333,8.83333 24,11.5C 24.4974,14.146 24.6641,16.8127 24.5,19.5C 27.5,19.5 30.5,19.5 33.5,19.5C 33.7678,21.099 33.4345,22.4324 32.5,23.5 Z"/></g>
<g><path style="opacity:0.134" fill="#fefefe" d="M 10.5,23.5 C 13.5,23.5 16.5,23.5 19.5,23.5C 19.5,26.1667 19.5,28.8333 19.5,31.5C 18.5318,29.3926 18.1984,27.0593 18.5,24.5C 15.6146,24.8064 12.9479,24.4731 10.5,23.5 Z"/></g>
<g><path style="opacity:0.132" fill="#fefefe" d="M 32.5,23.5 C 30.0521,24.4731 27.3854,24.8064 24.5,24.5C 24.8064,27.3854 24.4731,30.0521 23.5,32.5C 23.5,29.5 23.5,26.5 23.5,23.5C 26.5,23.5 29.5,23.5 32.5,23.5 Z"/></g>
</svg>
